<mxfile host="app.diagrams.net" modified="2023-03-23T12:08:57.498Z" agent="5.0 (Windows NT 10.0; Win64; x64) AppleWebKit/537.36 (KHTML, like Gecko) Chrome/111.0.0.0 Safari/537.36" etag="JncASTYoKLdp59hkhnGy" version="21.0.10" type="github">
  <diagram id="C5RBs43oDa-KdzZeNtuy" name="Page-1">
    <mxGraphModel dx="1434" dy="796" grid="1" gridSize="10" guides="1" tooltips="1" connect="1" arrows="1" fold="1" page="1" pageScale="1" pageWidth="827" pageHeight="1169" math="0" shadow="0">
      <root>
        <mxCell id="WIyWlLk6GJQsqaUBKTNV-0" />
        <mxCell id="WIyWlLk6GJQsqaUBKTNV-1" parent="WIyWlLk6GJQsqaUBKTNV-0" />
        <mxCell id="mPHMaz9vElvOI2MCWt-a-2" value="" style="edgeStyle=orthogonalEdgeStyle;rounded=0;orthogonalLoop=1;jettySize=auto;html=1;" edge="1" parent="WIyWlLk6GJQsqaUBKTNV-1" source="mPHMaz9vElvOI2MCWt-a-0" target="mPHMaz9vElvOI2MCWt-a-1">
          <mxGeometry relative="1" as="geometry" />
        </mxCell>
        <mxCell id="mPHMaz9vElvOI2MCWt-a-0" value="start" style="ellipse;whiteSpace=wrap;html=1;" vertex="1" parent="WIyWlLk6GJQsqaUBKTNV-1">
          <mxGeometry x="330" y="60" width="120" height="80" as="geometry" />
        </mxCell>
        <mxCell id="mPHMaz9vElvOI2MCWt-a-14" value="" style="edgeStyle=orthogonalEdgeStyle;rounded=0;orthogonalLoop=1;jettySize=auto;html=1;" edge="1" parent="WIyWlLk6GJQsqaUBKTNV-1" source="mPHMaz9vElvOI2MCWt-a-1" target="mPHMaz9vElvOI2MCWt-a-3">
          <mxGeometry relative="1" as="geometry" />
        </mxCell>
        <mxCell id="mPHMaz9vElvOI2MCWt-a-1" value="pobierz a" style="rounded=0;whiteSpace=wrap;html=1;" vertex="1" parent="WIyWlLk6GJQsqaUBKTNV-1">
          <mxGeometry x="330" y="180" width="120" height="60" as="geometry" />
        </mxCell>
        <mxCell id="mPHMaz9vElvOI2MCWt-a-8" style="edgeStyle=orthogonalEdgeStyle;rounded=0;orthogonalLoop=1;jettySize=auto;html=1;exitX=0;exitY=0.5;exitDx=0;exitDy=0;entryX=1;entryY=0.5;entryDx=0;entryDy=0;" edge="1" parent="WIyWlLk6GJQsqaUBKTNV-1" source="mPHMaz9vElvOI2MCWt-a-3" target="mPHMaz9vElvOI2MCWt-a-5">
          <mxGeometry relative="1" as="geometry" />
        </mxCell>
        <mxCell id="mPHMaz9vElvOI2MCWt-a-12" value="tak" style="edgeLabel;html=1;align=center;verticalAlign=middle;resizable=0;points=[];" vertex="1" connectable="0" parent="mPHMaz9vElvOI2MCWt-a-8">
          <mxGeometry x="0.2667" y="2" relative="1" as="geometry">
            <mxPoint as="offset" />
          </mxGeometry>
        </mxCell>
        <mxCell id="mPHMaz9vElvOI2MCWt-a-9" value="" style="edgeStyle=orthogonalEdgeStyle;rounded=0;orthogonalLoop=1;jettySize=auto;html=1;" edge="1" parent="WIyWlLk6GJQsqaUBKTNV-1" source="mPHMaz9vElvOI2MCWt-a-3" target="mPHMaz9vElvOI2MCWt-a-4">
          <mxGeometry relative="1" as="geometry" />
        </mxCell>
        <mxCell id="mPHMaz9vElvOI2MCWt-a-10" value="nie" style="edgeLabel;html=1;align=center;verticalAlign=middle;resizable=0;points=[];" vertex="1" connectable="0" parent="mPHMaz9vElvOI2MCWt-a-9">
          <mxGeometry x="0.22" relative="1" as="geometry">
            <mxPoint as="offset" />
          </mxGeometry>
        </mxCell>
        <mxCell id="mPHMaz9vElvOI2MCWt-a-3" value="a mod 2 = 0" style="rhombus;whiteSpace=wrap;html=1;" vertex="1" parent="WIyWlLk6GJQsqaUBKTNV-1">
          <mxGeometry x="350" y="280" width="80" height="80" as="geometry" />
        </mxCell>
        <mxCell id="mPHMaz9vElvOI2MCWt-a-15" style="edgeStyle=orthogonalEdgeStyle;rounded=0;orthogonalLoop=1;jettySize=auto;html=1;entryX=1;entryY=0.5;entryDx=0;entryDy=0;" edge="1" parent="WIyWlLk6GJQsqaUBKTNV-1" source="mPHMaz9vElvOI2MCWt-a-4" target="mPHMaz9vElvOI2MCWt-a-13">
          <mxGeometry relative="1" as="geometry">
            <mxPoint x="480" y="520" as="targetPoint" />
            <Array as="points">
              <mxPoint x="590" y="545" />
            </Array>
          </mxGeometry>
        </mxCell>
        <mxCell id="mPHMaz9vElvOI2MCWt-a-4" value="liczba nie parzysta" style="rounded=0;whiteSpace=wrap;html=1;" vertex="1" parent="WIyWlLk6GJQsqaUBKTNV-1">
          <mxGeometry x="530" y="290" width="120" height="60" as="geometry" />
        </mxCell>
        <mxCell id="mPHMaz9vElvOI2MCWt-a-16" style="edgeStyle=orthogonalEdgeStyle;rounded=0;orthogonalLoop=1;jettySize=auto;html=1;entryX=0;entryY=0.5;entryDx=0;entryDy=0;" edge="1" parent="WIyWlLk6GJQsqaUBKTNV-1" source="mPHMaz9vElvOI2MCWt-a-5" target="mPHMaz9vElvOI2MCWt-a-13">
          <mxGeometry relative="1" as="geometry">
            <Array as="points">
              <mxPoint x="170" y="545" />
            </Array>
          </mxGeometry>
        </mxCell>
        <mxCell id="mPHMaz9vElvOI2MCWt-a-5" value="liczba parzysta" style="rounded=0;whiteSpace=wrap;html=1;" vertex="1" parent="WIyWlLk6GJQsqaUBKTNV-1">
          <mxGeometry x="110" y="290" width="120" height="60" as="geometry" />
        </mxCell>
        <mxCell id="mPHMaz9vElvOI2MCWt-a-13" value="stop" style="ellipse;whiteSpace=wrap;html=1;" vertex="1" parent="WIyWlLk6GJQsqaUBKTNV-1">
          <mxGeometry x="330" y="505" width="120" height="80" as="geometry" />
        </mxCell>
      </root>
    </mxGraphModel>
  </diagram>
</mxfile>
